<svg width="43" height="12" viewBox="0 0 43 12" fill="none" xmlns="http://www.w3.org/2000/svg">
<path d="M0.125 11V0.274999H2.75V8.75H7.13V11H0.125ZM7.53805 5.57C7.53805 4.01 8.06305 2.71 9.11305 1.67C10.163 0.619999 11.508 0.0949991 13.148 0.0949991C14.788 0.0949991 16.133 0.619999 17.183 1.67C18.233 2.71 18.758 4.01 18.758 5.57C18.758 7.17 18.233 8.505 17.183 9.575C16.133 10.645 14.788 11.18 13.148 11.18C11.508 11.18 10.163 10.645 9.11305 9.575C8.06305 8.505 7.53805 7.17 7.53805 5.57ZM10.253 5.57C10.253 6.49 10.523 7.255 11.063 7.865C11.613 8.475 12.308 8.78 13.148 8.78C13.988 8.78 14.678 8.475 15.218 7.865C15.768 7.255 16.043 6.49 16.043 5.57C16.043 4.69 15.768 3.96 15.218 3.38C14.678 2.79 13.988 2.495 13.148 2.495C12.308 2.495 11.613 2.79 11.063 3.38C10.523 3.96 10.253 4.69 10.253 5.57ZM19.8577 5.615C19.8577 4.045 20.3877 2.735 21.4477 1.685C22.5177 0.624999 23.8627 0.0949991 25.4827 0.0949991C27.1527 0.0949991 28.5277 0.569999 29.6077 1.52L28.3477 3.485C28.0377 3.205 27.6377 2.97 27.1477 2.78C26.6577 2.59 26.1877 2.495 25.7377 2.495C24.6777 2.495 23.8827 2.785 23.3527 3.365C22.8327 3.935 22.5727 4.655 22.5727 5.525C22.5727 6.515 22.8677 7.305 23.4577 7.895C24.0577 8.485 24.7877 8.78 25.6477 8.78C26.4277 8.78 27.1527 8.52 27.8227 8V7.175H26.3077V4.94H30.1477V11H27.9577V10.7L27.9727 10.25H27.9427C27.6227 10.53 27.2027 10.755 26.6827 10.925C26.1727 11.095 25.6527 11.18 25.1227 11.18C23.6827 11.18 22.4427 10.675 21.4027 9.665C20.3727 8.655 19.8577 7.305 19.8577 5.615ZM31.4443 5.57C31.4443 4.01 31.9693 2.71 33.0193 1.67C34.0693 0.619999 35.4143 0.0949991 37.0543 0.0949991C38.6943 0.0949991 40.0393 0.619999 41.0893 1.67C42.1393 2.71 42.6643 4.01 42.6643 5.57C42.6643 7.17 42.1393 8.505 41.0893 9.575C40.0393 10.645 38.6943 11.18 37.0543 11.18C35.4143 11.18 34.0693 10.645 33.0193 9.575C31.9693 8.505 31.4443 7.17 31.4443 5.57ZM34.1593 5.57C34.1593 6.49 34.4293 7.255 34.9693 7.865C35.5193 8.475 36.2143 8.78 37.0543 8.78C37.8943 8.78 38.5843 8.475 39.1243 7.865C39.6743 7.255 39.9493 6.49 39.9493 5.57C39.9493 4.69 39.6743 3.96 39.1243 3.38C38.5843 2.79 37.8943 2.495 37.0543 2.495C36.2143 2.495 35.5193 2.79 34.9693 3.38C34.4293 3.96 34.1593 4.69 34.1593 5.57Z" fill="#333333"/>
</svg>
