<svg width="35" height="30" viewBox="0 0 35 30" fill="none" xmlns="http://www.w3.org/2000/svg">
<path d="M14.373 0.5V12.7568C14.373 17.2341 13.1449 20.7926 10.9219 23.4277C8.70052 26.0609 5.52449 27.7261 1.71094 28.4902L1.11328 28.6104V21.8262L1.49707 21.7354C3.69465 21.2115 5.1912 20.1767 6.14551 18.8096C7.02517 17.5493 7.47067 15.9661 7.53906 14.1533H0.5V0.5H14.373ZM34.5 0.5V12.7568C34.4999 17.2316 33.2986 20.7904 31.0879 23.4268C28.8784 26.0616 25.7013 27.7263 21.8369 28.4902L21.2402 28.6084V21.8262L21.624 21.7354C23.8216 21.2115 25.3182 20.1767 26.2725 18.8096C27.1521 17.5493 27.5976 15.9661 27.666 14.1533H20.627V0.5H34.5Z" stroke="#6248FF"/>
</svg>
