<svg width="24" height="24" viewBox="0 0 24 24" fill="none" xmlns="http://www.w3.org/2000/svg">
<path d="M9.84134 7.17621C9.68671 7.02005 9.59998 6.80917 9.59998 6.58941C9.59998 6.36965 9.68671 6.15877 9.84134 6.00261C9.91726 5.92551 10.0078 5.86428 10.1076 5.82249C10.2074 5.7807 10.3145 5.75918 10.4227 5.75918C10.5309 5.75918 10.6381 5.7807 10.7379 5.82249C10.8377 5.86428 10.9282 5.92551 11.0041 6.00261L15.6001 10.6922C15.7545 10.8487 15.8411 11.0598 15.8411 11.2796C15.8411 11.4995 15.7545 11.7105 15.6001 11.867L11.0041 16.5566C10.9282 16.6337 10.8377 16.6949 10.7379 16.7367C10.6381 16.7785 10.5309 16.8 10.4227 16.8C10.3145 16.8 10.2074 16.7785 10.1076 16.7367C10.0078 16.6949 9.91726 16.6337 9.84134 16.5566C9.68671 16.4005 9.59998 16.1896 9.59998 15.9698C9.59998 15.7501 9.68671 15.5392 9.84134 15.383L13.6105 11.2778L9.84134 7.17621Z" fill="black"/>
</svg>
